<svg width="206" height="40" viewBox="0 0 206 40" fill="none" xmlns="http://www.w3.org/2000/svg">
<path d="M64.1178 25.56C64.8778 25.56 65.5445 25.3933 66.1178 25.06C66.6911 24.7267 67.1445 24.24 67.4778 23.6H70.6778C70.2111 25.0267 69.3911 26.14 68.2178 26.94C67.0578 27.7267 65.6978 28.12 64.1378 28.12C62.5378 28.12 61.1311 27.6933 59.9178 26.84C58.7178 25.9733 57.8845 24.82 57.4178 23.38H55.7178V21.72H57.0978C57.0711 21.4 57.0578 21.16 57.0578 21C57.0578 20.8133 57.0711 20.56 57.0978 20.24H55.7178V18.58H57.4378C57.9045 17.14 58.7378 15.9933 59.9378 15.14C61.1511 14.2867 62.5511 13.86 64.1378 13.86C65.6978 13.86 67.0578 14.26 68.2178 15.06C69.3911 15.86 70.2111 16.9667 70.6778 18.38H67.4778C67.1445 17.74 66.6911 17.26 66.1178 16.94C65.5445 16.6067 64.8778 16.44 64.1178 16.44C63.3045 16.44 62.5778 16.6267 61.9378 17C61.3111 17.3733 60.8245 17.9 60.4778 18.58H64.3178V20.24H59.9778C59.9511 20.56 59.9378 20.8133 59.9378 21C59.9378 21.16 59.9511 21.4 59.9778 21.72H64.3178V23.38H60.4578C60.8045 24.06 61.2978 24.5933 61.9378 24.98C62.5778 25.3667 63.3045 25.56 64.1178 25.56Z" fill="white"/>
<path d="M83.0744 16.92V28H80.2544V26.6C79.8944 27.08 79.421 27.46 78.8344 27.74C78.261 28.0067 77.6344 28.14 76.9544 28.14C76.0877 28.14 75.321 27.96 74.6544 27.6C73.9877 27.2267 73.461 26.6867 73.0744 25.98C72.701 25.26 72.5144 24.4067 72.5144 23.42V16.92H75.3144V23.02C75.3144 23.9 75.5344 24.58 75.9744 25.06C76.4144 25.5267 77.0144 25.76 77.7744 25.76C78.5477 25.76 79.1544 25.5267 79.5944 25.06C80.0344 24.58 80.2544 23.9 80.2544 23.02V16.92H83.0744Z" fill="white"/>
<path d="M88.637 18.64C88.997 18.0533 89.4637 17.5933 90.037 17.26C90.6237 16.9267 91.2904 16.76 92.037 16.76V19.7H91.297C90.417 19.7 89.7504 19.9067 89.297 20.32C88.857 20.7333 88.637 21.4533 88.637 22.48V28H85.837V16.92H88.637V18.64Z" fill="white"/>
<path d="M98.843 28.18C97.7763 28.18 96.8163 27.9467 95.963 27.48C95.1096 27 94.4363 26.3267 93.943 25.46C93.463 24.5933 93.223 23.5933 93.223 22.46C93.223 21.3267 93.4696 20.3267 93.963 19.46C94.4696 18.5933 95.1563 17.9267 96.023 17.46C96.8896 16.98 97.8563 16.74 98.923 16.74C99.9896 16.74 100.956 16.98 101.823 17.46C102.69 17.9267 103.37 18.5933 103.863 19.46C104.37 20.3267 104.623 21.3267 104.623 22.46C104.623 23.5933 104.363 24.5933 103.843 25.46C103.336 26.3267 102.643 27 101.763 27.48C100.896 27.9467 99.923 28.18 98.843 28.18ZM98.843 25.74C99.3496 25.74 99.823 25.62 100.263 25.38C100.716 25.1267 101.076 24.7533 101.343 24.26C101.61 23.7667 101.743 23.1667 101.743 22.46C101.743 21.4067 101.463 20.6 100.903 20.04C100.356 19.4667 99.683 19.18 98.883 19.18C98.083 19.18 97.4096 19.4667 96.863 20.04C96.3296 20.6 96.063 21.4067 96.063 22.46C96.063 23.5133 96.323 24.3267 96.843 24.9C97.3763 25.46 98.043 25.74 98.843 25.74Z" fill="white"/>
<path d="M109.477 18.64C109.837 18.0533 110.304 17.5933 110.877 17.26C111.464 16.9267 112.13 16.76 112.877 16.76V19.7H112.137C111.257 19.7 110.59 19.9067 110.137 20.32C109.697 20.7333 109.477 21.4533 109.477 22.48V28H106.677V16.92H109.477V18.64Z" fill="white"/>
<path d="M119.503 25.78C120.636 25.78 121.376 25.2733 121.723 24.26H124.743C124.463 25.34 123.943 26.22 123.183 26.9C122.436 27.58 121.496 27.9867 120.363 28.12V28.9C121.096 28.9 121.709 29.0867 122.203 29.46C122.709 29.8333 122.963 30.3733 122.963 31.08C122.963 31.8 122.703 32.3533 122.183 32.74C121.676 33.1267 121.049 33.32 120.303 33.32H117.463V31.68H119.843C120.163 31.68 120.403 31.6333 120.563 31.54C120.736 31.4467 120.823 31.28 120.823 31.04C120.823 30.8 120.736 30.6333 120.563 30.54C120.403 30.46 120.163 30.42 119.843 30.42H118.603V28.12C117.696 27.9867 116.896 27.6733 116.203 27.18C115.523 26.6733 114.989 26.02 114.603 25.22C114.229 24.4067 114.043 23.4867 114.043 22.46C114.043 21.3133 114.276 20.3133 114.743 19.46C115.209 18.5933 115.856 17.9267 116.683 17.46C117.509 16.98 118.456 16.74 119.523 16.74C120.896 16.74 122.029 17.0867 122.923 17.78C123.829 18.46 124.436 19.42 124.743 20.66H121.723C121.563 20.18 121.289 19.8067 120.903 19.54C120.529 19.26 120.063 19.12 119.503 19.12C118.703 19.12 118.069 19.4133 117.603 20C117.136 20.5733 116.903 21.3933 116.903 22.46C116.903 23.5133 117.136 24.3333 117.603 24.92C118.069 25.4933 118.703 25.78 119.503 25.78Z" fill="white"/>
<path d="M126.074 22.42C126.074 21.3 126.294 20.3067 126.734 19.44C127.187 18.5733 127.794 17.9067 128.554 17.44C129.327 16.9733 130.187 16.74 131.134 16.74C131.961 16.74 132.681 16.9067 133.294 17.24C133.921 17.5733 134.421 17.9933 134.794 18.5V16.92H137.614V28H134.794V26.38C134.434 26.9 133.934 27.3333 133.294 27.68C132.667 28.0133 131.941 28.18 131.114 28.18C130.181 28.18 129.327 27.94 128.554 27.46C127.794 26.98 127.187 26.3067 126.734 25.44C126.294 24.56 126.074 23.5533 126.074 22.42ZM134.794 22.46C134.794 21.78 134.661 21.2 134.394 20.72C134.127 20.2267 133.767 19.8533 133.314 19.6C132.861 19.3333 132.374 19.2 131.854 19.2C131.334 19.2 130.854 19.3267 130.414 19.58C129.974 19.8333 129.614 20.2067 129.334 20.7C129.067 21.18 128.934 21.7533 128.934 22.42C128.934 23.0867 129.067 23.6733 129.334 24.18C129.614 24.6733 129.974 25.0533 130.414 25.32C130.867 25.5867 131.347 25.72 131.854 25.72C132.374 25.72 132.861 25.5933 133.314 25.34C133.767 25.0733 134.127 24.7 134.394 24.22C134.661 23.7267 134.794 23.14 134.794 22.46Z" fill="white"/>
<path d="M154.109 16.76C155.469 16.76 156.562 17.18 157.389 18.02C158.229 18.8467 158.649 20.0067 158.649 21.5V28H155.849V21.88C155.849 21.0133 155.629 20.3533 155.189 19.9C154.749 19.4333 154.149 19.2 153.389 19.2C152.629 19.2 152.022 19.4333 151.569 19.9C151.129 20.3533 150.909 21.0133 150.909 21.88V28H148.109V21.88C148.109 21.0133 147.889 20.3533 147.449 19.9C147.009 19.4333 146.409 19.2 145.649 19.2C144.875 19.2 144.262 19.4333 143.809 19.9C143.369 20.3533 143.149 21.0133 143.149 21.88V28H140.349V16.92H143.149V18.26C143.509 17.7933 143.969 17.4267 144.529 17.16C145.102 16.8933 145.729 16.76 146.409 16.76C147.275 16.76 148.049 16.9467 148.729 17.32C149.409 17.68 149.935 18.2 150.309 18.88C150.669 18.24 151.189 17.7267 151.869 17.34C152.562 16.9533 153.309 16.76 154.109 16.76Z" fill="white"/>
<path d="M171.606 22.22C171.606 22.62 171.579 22.98 171.526 23.3H163.426C163.492 24.1 163.772 24.7267 164.266 25.18C164.759 25.6333 165.366 25.86 166.086 25.86C167.126 25.86 167.866 25.4133 168.306 24.52H171.326C171.006 25.5867 170.392 26.4667 169.486 27.16C168.579 27.84 167.466 28.18 166.146 28.18C165.079 28.18 164.119 27.9467 163.266 27.48C162.426 27 161.766 26.3267 161.286 25.46C160.819 24.5933 160.586 23.5933 160.586 22.46C160.586 21.3133 160.819 20.3067 161.286 19.44C161.752 18.5733 162.406 17.9067 163.246 17.44C164.086 16.9733 165.052 16.74 166.146 16.74C167.199 16.74 168.139 16.9667 168.966 17.42C169.806 17.8733 170.452 18.52 170.906 19.36C171.372 20.1867 171.606 21.14 171.606 22.22ZM168.706 21.42C168.692 20.7 168.432 20.1267 167.926 19.7C167.419 19.26 166.799 19.04 166.066 19.04C165.372 19.04 164.786 19.2533 164.306 19.68C163.839 20.0933 163.552 20.6733 163.446 21.42H168.706Z" fill="white"/>
<path d="M179.79 16.76C181.11 16.76 182.176 17.18 182.99 18.02C183.803 18.8467 184.21 20.0067 184.21 21.5V28H181.41V21.88C181.41 21 181.19 20.3267 180.75 19.86C180.31 19.38 179.71 19.14 178.95 19.14C178.176 19.14 177.563 19.38 177.11 19.86C176.67 20.3267 176.45 21 176.45 21.88V28H173.65V16.92H176.45V18.3C176.823 17.82 177.296 17.4467 177.87 17.18C178.456 16.9 179.096 16.76 179.79 16.76Z" fill="white"/>
<path d="M190.132 19.22V24.58C190.132 24.9533 190.219 25.2267 190.392 25.4C190.579 25.56 190.886 25.64 191.312 25.64H192.612V28H190.852C188.492 28 187.312 26.8533 187.312 24.56V19.22H185.992V16.92H187.312V14.18H190.132V16.92H192.612V19.22H190.132Z" fill="white"/>
<path d="M199.546 28.18C198.479 28.18 197.519 27.9467 196.666 27.48C195.813 27 195.139 26.3267 194.646 25.46C194.166 24.5933 193.926 23.5933 193.926 22.46C193.926 21.3267 194.173 20.3267 194.666 19.46C195.173 18.5933 195.859 17.9267 196.726 17.46C197.593 16.98 198.559 16.74 199.626 16.74C200.693 16.74 201.659 16.98 202.526 17.46C203.393 17.9267 204.073 18.5933 204.566 19.46C205.073 20.3267 205.326 21.3267 205.326 22.46C205.326 23.5933 205.066 24.5933 204.546 25.46C204.039 26.3267 203.346 27 202.466 27.48C201.599 27.9467 200.626 28.18 199.546 28.18ZM199.546 25.74C200.053 25.74 200.526 25.62 200.966 25.38C201.419 25.1267 201.779 24.7533 202.046 24.26C202.313 23.7667 202.446 23.1667 202.446 22.46C202.446 21.4067 202.166 20.6 201.606 20.04C201.059 19.4667 200.386 19.18 199.586 19.18C198.786 19.18 198.113 19.4667 197.566 20.04C197.033 20.6 196.766 21.4067 196.766 22.46C196.766 23.5133 197.026 24.3267 197.546 24.9C198.079 25.46 198.746 25.74 199.546 25.74Z" fill="white"/>
<path d="M34.1422 5.85781C30.3647 2.08031 25.3422 0 20 0C14.6578 0 9.63531 2.08031 5.85781 5.85781C2.08031 9.63531 0 14.6578 0 20C0 25.3422 2.08039 30.3646 5.85781 34.1422C9.63523 37.9198 14.6578 40 20 40C25.3422 40 30.3647 37.9197 34.1422 34.1422C37.9197 30.3647 40 25.3422 40 20C40 14.6578 37.9196 9.63539 34.1422 5.85781Z" fill="#33CC95"/>
<path d="M20.7563 28.2389C21.9723 28.2389 23.039 27.9722 23.9563 27.4389C24.8737 26.9055 25.599 26.1269 26.1323 25.1029H31.2523C30.5057 27.3855 29.1937 29.1669 27.3163 30.4469C25.4603 31.7055 23.2843 32.3349 20.7883 32.3349C18.2283 32.3349 15.9777 31.6522 14.0363 30.2869C12.1163 28.9002 10.783 27.0549 10.0363 24.7509H7.31635V22.0949H9.52435C9.48168 21.5829 9.46035 21.1989 9.46035 20.9429C9.46035 20.6442 9.48168 20.2389 9.52435 19.7269H7.31635V17.0709H10.0683C10.815 14.7669 12.1483 12.9322 14.0683 11.5669C16.0097 10.2015 18.2497 9.51886 20.7883 9.51886C23.2843 9.51886 25.4603 10.1589 27.3163 11.4389C29.1937 12.7189 30.5057 14.4895 31.2523 16.7509H26.1323C25.599 15.7269 24.8737 14.9589 23.9563 14.4469C23.039 13.9135 21.9723 13.6469 20.7563 13.6469C19.455 13.6469 18.2923 13.9455 17.2683 14.5429C16.2657 15.1402 15.487 15.9829 14.9323 17.0709H21.0763V19.7269H14.1323C14.0897 20.2389 14.0683 20.6442 14.0683 20.9429C14.0683 21.1989 14.0897 21.5829 14.1323 22.0949H21.0763V24.7509H14.9003C15.455 25.8389 16.2443 26.6922 17.2683 27.3109C18.2923 27.9295 19.455 28.2389 20.7563 28.2389Z" fill="white"/>
</svg>
